<?xml version="1.0" encoding="UTF-8"?>
<!DOCTYPE svg PUBLIC "-//W3C//DTD SVG 1.1//EN" "http://www.w3.org/Graphics/SVG/1.1/DTD/svg11.dtd">
<!-- Creator: CorelDRAW -->
<svg xmlns="http://www.w3.org/2000/svg" xml:space="preserve" width="24px" height="22px" version="1.1" style="shape-rendering:geometricPrecision; text-rendering:geometricPrecision; image-rendering:optimizeQuality; fill-rule:evenodd; clip-rule:evenodd"
viewBox="0 0 423.5 388.2"
 xmlns:xlink="http://www.w3.org/1999/xlink"
 xmlns:xodm="http://www.corel.com/coreldraw/odm/2003">
 <defs>
  <style type="text/css">
   <![CDATA[
    .fil0 {fill:none}
    .fil1 {fill:white}
   ]]>
  </style>
 </defs>
 <g id="Слой_x0020_1">
  <metadata id="CorelCorpID_0Corel-Layer"/>
  <rect class="fil0" width="423.5" height="388.2"/>
  <path class="fil1" d="M34.7 182c31.6,-13.3 59.9,-25.1 85.1,-35.6l63.2 47.4 -43.4 28.1c-14.1,9.3 -26.8,13.9 -38.3,13.6 -12.5,-0.2 -36.8,-6.8 -54.8,-12.5 -22,-6.9 -30.2,-10.1 -28.7,-21.9 0.8,-6.1 6.4,-12.4 16.9,-19.1zm63.9 -95.7c-7.8,-5.9 -9.4,-17 -3.5,-24.8 5.8,-7.9 17,-9.4 24.8,-3.6l76 56.9c18.4,-7.6 33.2,-13.6 44.4,-18.1 97.9,-39.2 118.3,-46 131.5,-46.2 3,-0.1 9.5,0.6 13.7,3.9 3.6,2.8 4.6,6.6 5,9.2 0.5,2.7 1.1,8.7 0.6,13.4 -3.5,35.6 -14.8,104.9 -25.4,165l45.1 33c7.8,5.8 9.4,17 3.6,24.8 -5.9,7.8 -17,9.4 -24.9,3.5l-30.8 -22.3 -114.7 -85.9 -63.8 -47.7 -22.4 -16.8 -59.2 -44.3zm148 66.5l23.8 17.8c16.4,-15.4 29.4,-28.3 30.1,-31 0.2,-0.9 -2.8,-9.9 -4.9,-11.6 -2,-1.8 -5.1,-1.2 -7.3,-0.7 -1.6,0.3 -15.5,8.9 -41.7,25.5zm104.8 167.1l-0.2 1.1c-5,25.5 -14.8,30.9 -24.2,31.8 -20.5,1.8 -36,-10 -55.8,-22.5 -31,-19.6 -42.4,-24.9 -72.6,-44 -34.8,-22.1 -15.8,-33.6 4.1,-53.5 1.1,-1.1 6.7,-6.2 14.6,-13.4l134.1 100.5z"/>
 </g>
</svg>
